<svg xmlns:dc="http://purl.org/dc/elements/1.1/" xmlns:cc="http://creativecommons.org/ns#" xmlns:rdf="http://www.w3.org/1999/02/22-rdf-syntax-ns#" xmlns:svg="http://www.w3.org/2000/svg" xmlns="http://www.w3.org/2000/svg" xmlns:xlink="http://www.w3.org/1999/xlink" xmlns:sodipodi="http://sodipodi.sourceforge.net/DTD/sodipodi-0.dtd" xmlns:inkscape="http://www.inkscape.org/namespaces/inkscape" viewBox="0 0 80 80" version="1.1" x="0px" y="0px"><g style="" display="none"><path style="" d="m 17.301549,39.547156 2.119953,-0.889012 0.205157,1.778025 1.84641,-1.025784" transform="scale(0.8,0.8)" fill="none" stroke="#000000" stroke-width="1px" stroke-linecap="butt" stroke-linejoin="miter" stroke-opacity="1"></path></g><g><path style="" d="m 32.391582,0.76582013 -13.75,5.52499997 c 0,0 16.367041,3.6594168 16.75,3.55 0.382959,-0.1094168 15.2,-5.575 15.2,-5.575 l -18.2,-3.49999997 z m 18.7,3.79999997 c -1.446246,0.4971472 -2.862794,1.0916968 -4.3,1.625 -3.74216,1.4281672 -7.489762,2.8649112 -11.25,4.2749999 -0.04519,1.111801 -0.08192,2.238199 -0.1,3.35 1.554714,-0.578498 3.079326,-1.203424 4.625,-1.8 0.506186,-0.180781 0.936892,-0.524024 1.425,-0.75 0.551381,-0.298288 1.119385,-0.503258 1.725,-0.675 0.3706,-0.108468 0.772478,-0.0873 1.125,-0.25 2.196485,-0.8767863 4.412554,-1.7301359 6.6,-2.6249999 0.135586,-1.048528 0.204234,-2.101472 0.15,-3.15 z m -32.925,2.325 c 0,2.7026712 0.075,5.3973289 0.075,8.0999999 0.04519,2.160329 0.02077,4.314671 0.075,6.475 1.925314,0.460991 3.840647,0.907087 5.775,1.35 0.316366,0.07231 0.624595,0.163844 0.95,0.2 0.225976,-0.117507 0.401142,-0.312297 0.6,-0.475 l 9.25,-8.375 c 0.126546,-0.108468 0.209039,-0.244219 0.2,-0.425 0.06327,-1.111801 0.07077,-2.238199 0.125,-3.35 -3.398677,-0.7321615 -6.817285,-1.3949551 -10.225,-2.0999999 -2.277836,-0.4609904 -4.547164,-0.948048 -6.825,-1.4 z m 31.775,1.6 c -1.898197,0.7321616 -3.644881,1.6816829 -5.525,2.4499999 0.406757,0.47003 0.622478,0.759775 0.975,1.275 0.08135,0.135586 0.218649,-0.04577 0.3,-0.1 1.247386,-1.048528 2.486653,-2.101472 3.725,-3.1499999 0.180781,-0.1536632 0.362298,-0.2942192 0.525,-0.475 z m -26.675,1.275 c 2.129854,-0.045726 4.56783,1.0634769 5.775,2.5999999 1.053366,1.340757 1.167572,4.048949 -0.175,5.1 -2.210135,1.730235 -6.471159,0.44145 -8.225,-1.75 -1.063513,-1.328874 -1.277038,-4.034196 0.05,-5.1 0.692494,-0.556173 1.606885,-0.8292159 2.575,-0.8499999 z m 20.375,1.5249999 c -0.804474,0.18982 -1.560916,0.543243 -2.275,0.95 -0.56042,0.343483 -1.071502,0.742673 -1.65,1.05 -1.265465,0.686967 -2.499926,1.468409 -3.675,2.3 -0.397718,0.280211 -0.780946,0.591127 -1.025,1.025 0.551381,0.768318 1.085346,1.551878 1.7,2.275 0.08135,-0.325405 0.108063,-0.678829 0.325,-0.95 0.46099,-0.307327 1.041697,-0.372883 1.575,-0.4 0.804474,-0.03616 1.434205,0.585346 1.85,1.2 0.207898,0.253093 0.04308,0.560751 0.025,0.85 0.397718,-0.162702 0.806517,-0.312868 1.15,-0.575 0.84063,-0.596576 1.702448,-1.135345 2.525,-1.75 -0.334444,-0.108468 -0.690556,-0.148453 -1.025,-0.275 -0.3706,-0.198858 -0.436726,-0.6544 -0.5,-1.025 -0.153663,-0.93102 0.233799,-1.921501 0.975,-2.5 0.352522,-0.117507 0.7294,-0.01596 1.1,-0.025 0.03616,-0.253093 0.232898,-0.549024 0.025,-0.775 -0.325405,-0.479069 -0.666126,-0.977282 -1.1,-1.375 z m -22.375,0.1 0,0.475 -0.05,1.55 0,0.35 0.325,0.075 6.175,1.2 0.475,0.075 0,-0.475 0.05,-1.425 0,-0.325 -0.325,-0.075 -6.175,-1.325 -0.475,-0.1 z m 0.775,0.975 5.4,1.15 -0.025,0.625 -5.4,-1.025 0.025,-0.75 z m 16.65,0.55 c -1.048528,0.3706 -2.076472,0.811322 -3.125,1.2 -0.3706,0.135586 -0.635751,0.437868 -0.925,0.7 -1.663182,1.500479 -3.311818,2.990482 -4.975,4.5 -1.319699,1.211231 -2.682418,2.386653 -3.975,3.625 2.972538,-1.249109 6.1828,-2.994137 9.725,-4.4 -0.298288,-0.470029 -0.649595,-0.898048 -0.975,-1.35 -0.162702,-0.216937 -0.317507,-0.503829 -0.2,-0.775 0.207898,-0.524264 0.632087,-0.931517 1.075,-1.275 1.075645,-0.813513 2.227043,-1.519955 3.375,-2.225 z m 5.1,0.825 c -0.65985,0.515225 -0.969625,1.427448 -0.825,2.25 0.06327,0.253093 0.07883,0.598454 0.35,0.725 0.686966,0.216937 1.403994,0.262298 2.1,0.425 1.138918,0.253093 2.293004,0.492103 3.45,0.7 l 24.4,4.725 c 0.397718,0.06327 0.818243,0.316937 1.225,0.1 0.488108,-0.126546 0.642102,-0.643243 0.85,-1.05 0.289249,-0.614654 0.100405,-1.31458 -0.225,-1.875 -0.144625,-0.207897 -0.287868,-0.470765 -0.55,-0.525 -9.716961,-1.789729 -19.458039,-3.585271 -29.175,-5.375 -0.533303,-0.0452 -1.066697,-0.145195 -1.6,-0.1 z m 0.4,3.95 c -0.894864,0.533303 -1.725331,1.137463 -2.575,1.725 4.094682,5.242639 8.180318,10.507361 12.275,15.75 0.316366,0.361562 0.886322,0.219625 1.275,0.075 0.542342,-0.316366 0.836726,-0.919385 0.9,-1.525 -0.108468,-0.271171 -0.303258,-0.489985 -0.475,-0.725 -1.464323,-1.943392 -2.910677,-3.881608 -4.375,-5.825 -2.33207,-3.163661 -4.68389,-6.311338 -7.025,-9.475 z m -5.8,0.15 c -0.386322,-0.0078 -0.776103,0.110749 -1.1,0.35 l -0.1,0.125 c -0.657116,2.139716 -1.057585,4.336657 -1.625,6.5 -1.610355,7.101202 -3.218633,14.196368 -4.825,21.3 -0.1726,1.138071 -0.603635,2.237419 -0.75,3.375 0.120781,1.449123 2.000972,1.463991 3.1,1.3 0.384858,-1.601937 0.750278,-3.215098 1.1,-4.825 1.809936,-8.641756 3.90869,-17.212653 5.85,-25.825 0.655562,-1.257429 -0.491034,-2.276586 -1.65,-2.3 z m -5.075,2.1 c -1.889158,0.831591 -3.769881,1.657253 -5.65,2.525 -0.02712,5.721708 0.02288,11.753292 0.05,17.475 0.01808,9.644648 0.15,29.2 0.15,29.2 0,0 0.535258,0.792869 2.625,0.95 2.258542,-0.230601 2.6,-0.95 2.6,-0.95 0,0 0.03404,-2.440316 0.025,-3.525 0,-4.67318 0.02712,-9.35182 0,-14.025 -0.578498,0 -1.155541,0.151547 -1.725,0.025 -0.46099,-0.09943 -0.963438,-0.199595 -1.325,-0.525 -0.316366,-0.28021 -0.603829,-0.574595 -0.875,-0.9 -0.117507,-0.126546 -0.136156,-0.312297 -0.1,-0.475 0.433874,-1.617987 0.736322,-3.247974 1.125,-4.875 0.949098,-4.166994 1.900902,-8.348966 2.85,-12.525 0.216937,-0.677927 0.06865,-1.388033 0.15,-2.075 0.04519,-1.048528 -0.03135,-2.076472 0.05,-3.125 0.02712,-1.21123 -0.01327,-2.438769 0.05,-3.65 0.009,-1.075645 0.009,-2.449355 0,-3.525 z m 0.3,38.35 -0.05,11.15 c 0,0 -0.51708,1.135102 -3.15,1.125 -2.348026,-0.310937 -1.973475,-0.49399 -3.125,-1.175 l -0.025,-10.9 c -9.800706,0.832143 -17.43662,5.078115 -17.45,10.375 -0.014931,5.911152 9.262154,10.721048 20.725,10.75 11.462846,0.02896 20.760069,-4.738848 20.775,-10.65 0.01362,-5.392957 -7.641012,-9.908825 -17.7,-10.675 z" fill="#000000" fill-opacity="1" stroke="none"></path><g transform="matrix(0.09039033,0,0,0.09039033,13.874007,1.6950108)" style="" stroke="none"><path d="m 322.2,612.6 c 1.4,-0.3 1.6,2.2 0.6,2.8 -1.4,0.3 -1.6,-2.2 -0.6,-2.8 z" style="" fill="#000000" stroke="none"></path></g></g></svg>